<?xml version="1.0" encoding="UTF-8" standalone="no"?><!DOCTYPE svg PUBLIC "-//W3C//DTD SVG 1.1//EN" "http://www.w3.org/Graphics/SVG/1.1/DTD/svg11.dtd"><!-- Generated by graphviz version 2.40.1 (20161225.0304)
 --><!-- Title: G Pages: 1 --><svg xmlns="http://www.w3.org/2000/svg" xmlns:xlink="http://www.w3.org/1999/xlink" width="813pt" height="482pt" viewBox="0.00 0.00 813.00 482.20">
<g id="graph0" class="graph" transform="scale(1 1) rotate(0) translate(4 478.2)">
<title>G</title>
<polygon fill="#ffffff" stroke="transparent" points="-4,4 -4,-478.2 809,-478.2 809,4 -4,4"/>
<g id="clust1" class="cluster">
<title>cluster_main</title>
<polygon fill="none" stroke="#000000" points="8,-8 8,-466.2 797,-466.2 797,-8 8,-8"/>
<text text-anchor="middle" x="402.5" y="-449.6" font-family="Times,serif" font-size="14.00" fill="#000000">Task Manager CLI</text>
</g>
<!-- main -->
<g id="node1" class="node">
<title>main</title>
<polygon fill="none" stroke="#000000" points="457.5576,-433.2019 298.4424,-433.2019 298.4424,-391.9981 457.5576,-391.9981 457.5576,-433.2019"/>
<text text-anchor="middle" x="378" y="-416.8" font-family="Times,serif" font-size="14.00" fill="#000000">main.go</text>
<text text-anchor="middle" x="378" y="-400" font-family="Times,serif" font-size="14.00" fill="#000000">(Handles CLI arguments)</text>
</g>
<!-- task -->
<g id="node2" class="node">
<title>task</title>
<polygon fill="none" stroke="#000000" points="457.5576,-300.8019 298.4424,-300.8019 298.4424,-259.5981 457.5576,-259.5981 457.5576,-300.8019"/>
<text text-anchor="middle" x="378" y="-284.4" font-family="Times,serif" font-size="14.00" fill="#000000">task.go</text>
<text text-anchor="middle" x="378" y="-267.6" font-family="Times,serif" font-size="14.00" fill="#000000">(Handles task operations)</text>
</g>
<!-- main&#45;&gt;task -->
<g id="edge1" class="edge">
<title>main-&gt;task</title>
<path fill="none" stroke="#000000" d="M378,-391.9125C378,-370.2755 378,-336.0662 378,-311.2001"/>
<polygon fill="#000000" stroke="#000000" points="381.5001,-311.1791 378,-301.1792 374.5001,-311.1792 381.5001,-311.1791"/>
<text text-anchor="middle" x="424.8447" y="-342.2" font-family="Times,serif" font-size="14.00" fill="#000000">parse commands</text>
</g>
<!-- storage -->
<g id="node3" class="node">
<title>storage</title>
<polygon fill="none" stroke="#000000" points="124.4152,-168.4019 15.5848,-168.4019 15.5848,-127.1981 124.4152,-127.1981 124.4152,-168.4019"/>
<text text-anchor="middle" x="70" y="-152" font-family="Times,serif" font-size="14.00" fill="#000000">storage.go</text>
<text text-anchor="middle" x="70" y="-135.2" font-family="Times,serif" font-size="14.00" fill="#000000">(File operations)</text>
</g>
<!-- task&#45;&gt;storage -->
<g id="edge7" class="edge">
<title>task-&gt;storage</title>
<path fill="none" stroke="#000000" d="M298.4077,-264.2944C259.8579,-254.9306 213.5761,-241.1828 174.5252,-222.4 148.2143,-209.7449 121.4695,-190.5156 101.6199,-174.7498"/>
<polygon fill="#000000" stroke="#000000" points="103.8062,-172.0166 93.8273,-168.4568 99.4082,-177.4626 103.8062,-172.0166"/>
<text text-anchor="middle" x="221.2374" y="-209.8" font-family="Times,serif" font-size="14.00" fill="#000000">invoke save/load</text>
</g>
<!-- addTask -->
<g id="node4" class="node">
<title>addTask</title>
<ellipse fill="none" stroke="#000000" cx="191" cy="-147.8" rx="48.6989" ry="18"/>
<text text-anchor="middle" x="191" y="-143.6" font-family="Times,serif" font-size="14.00" fill="#000000">Add Task</text>
</g>
<!-- task&#45;&gt;addTask -->
<g id="edge2" class="edge">
<title>task-&gt;addTask</title>
<path fill="none" stroke="#000000" d="M348.7813,-259.5125C314.3115,-235.1072 257.2505,-194.7068 222.0169,-169.7607"/>
<polygon fill="#000000" stroke="#000000" points="223.7405,-166.6925 213.5566,-163.7705 219.6956,-172.4056 223.7405,-166.6925"/>
</g>
<!-- listTasks -->
<g id="node5" class="node">
<title>listTasks</title>
<ellipse fill="none" stroke="#000000" cx="309" cy="-147.8" rx="50.9978" ry="18"/>
<text text-anchor="middle" x="309" y="-143.6" font-family="Times,serif" font-size="14.00" fill="#000000">List Tasks</text>
</g>
<!-- task&#45;&gt;listTasks -->
<g id="edge3" class="edge">
<title>task-&gt;listTasks</title>
<path fill="none" stroke="#000000" d="M367.2188,-259.5125C355.3211,-236.6828 336.1292,-199.8567 323.059,-174.777"/>
<polygon fill="#000000" stroke="#000000" points="326.1029,-173.0443 318.3775,-165.7938 319.8952,-176.2794 326.1029,-173.0443"/>
</g>
<!-- completeTask -->
<g id="node6" class="node">
<title>completeTask</title>
<ellipse fill="none" stroke="#000000" cx="448" cy="-147.8" rx="69.5428" ry="18"/>
<text text-anchor="middle" x="448" y="-143.6" font-family="Times,serif" font-size="14.00" fill="#000000">Complete Task</text>
</g>
<!-- task&#45;&gt;completeTask -->
<g id="edge4" class="edge">
<title>task-&gt;completeTask</title>
<path fill="none" stroke="#000000" d="M388.9375,-259.5125C401.0076,-236.6828 420.4776,-199.8567 433.7372,-174.777"/>
<polygon fill="#000000" stroke="#000000" points="436.9068,-176.2702 438.4866,-165.7938 430.7184,-172.9984 436.9068,-176.2702"/>
</g>
<!-- deleteTask -->
<g id="node7" class="node">
<title>deleteTask</title>
<ellipse fill="none" stroke="#000000" cx="593" cy="-147.8" rx="57.3397" ry="18"/>
<text text-anchor="middle" x="593" y="-143.6" font-family="Times,serif" font-size="14.00" fill="#000000">Delete Task</text>
</g>
<!-- task&#45;&gt;deleteTask -->
<g id="edge5" class="edge">
<title>task-&gt;deleteTask</title>
<path fill="none" stroke="#000000" d="M411.5938,-259.5125C451.4508,-234.968 517.5789,-194.2454 558.0295,-169.3353"/>
<polygon fill="#000000" stroke="#000000" points="560.0647,-172.1925 566.7443,-163.9686 556.3941,-166.232 560.0647,-172.1925"/>
</g>
<!-- updateTask -->
<g id="node8" class="node">
<title>updateTask</title>
<ellipse fill="none" stroke="#000000" cx="729" cy="-147.8" rx="60.2129" ry="18"/>
<text text-anchor="middle" x="729" y="-143.6" font-family="Times,serif" font-size="14.00" fill="#000000">Update Task</text>
</g>
<!-- task&#45;&gt;updateTask -->
<g id="edge6" class="edge">
<title>task-&gt;updateTask</title>
<path fill="none" stroke="#000000" d="M432.8438,-259.5125C501.2503,-233.709 617.0587,-190.0252 681.7285,-165.6312"/>
<polygon fill="#000000" stroke="#000000" points="683.1491,-168.8361 691.2703,-162.032 680.6785,-162.2866 683.1491,-168.8361"/>
</g>
<!-- saveTask -->
<g id="node9" class="node">
<title>saveTask</title>
<ellipse fill="none" stroke="#000000" cx="73" cy="-34" rx="57.3398" ry="18"/>
<text text-anchor="middle" x="73" y="-29.8" font-family="Times,serif" font-size="14.00" fill="#000000">Save to File</text>
</g>
<!-- storage&#45;&gt;saveTask -->
<g id="edge8" class="edge">
<title>storage-&gt;saveTask</title>
<path fill="none" stroke="#000000" d="M70.5433,-127.1917C71.0213,-109.0578 71.7219,-82.4836 72.2527,-62.3482"/>
<polygon fill="#000000" stroke="#000000" points="75.7553,-62.2909 72.5202,-52.2021 68.7577,-62.1064 75.7553,-62.2909"/>
</g>
<!-- loadTasks -->
<g id="node10" class="node">
<title>loadTasks</title>
<ellipse fill="none" stroke="#000000" cx="218" cy="-34" rx="69.5012" ry="18"/>
<text text-anchor="middle" x="218" y="-29.8" font-family="Times,serif" font-size="14.00" fill="#000000">Load from File</text>
</g>
<!-- storage&#45;&gt;loadTasks -->
<g id="edge9" class="edge">
<title>storage-&gt;loadTasks</title>
<path fill="none" stroke="#000000" d="M96.8017,-127.1917C122.3578,-107.5411 160.8038,-77.9792 187.516,-57.4397"/>
<polygon fill="#000000" stroke="#000000" points="189.9513,-59.9823 195.7453,-51.1121 185.6844,-54.433 189.9513,-59.9823"/>
</g>
</g>
</svg>